<svg t="1663746860491" class="icon" viewBox="0 0 1024 1024" version="1.1" xmlns="http://www.w3.org/2000/svg" p-id="10156" width="200" height="200">
	<path d="M510.336 102.141952c-19.782656-0.11776-36.93312 11.43296-46.067712 26.777088-9.13408 15.344128-12.998144 33.82784-15.198208 54.2976-4.399616 40.940544-1.10592 90.71872-0.586752 134.28736 0.269312 22.596096 0.146944 45.926912-0.0768 68.219904-5.65248-14.30784-11.098624-28.25472-15.417344-39.72352l-0.02816-0.07424-0.027648-0.073216c-15.798784-40.818176-30.516736-82.433024-50.727936-112.95232-10.105344-15.26016-21.824512-28.237824-37.472256-35.572736-15.647744-7.335424-34.874368-7.260672-53.042688 0.8576l-0.152576 0.06912-0.152064 0.07168c-17.60768 8.2816-28.62848 24.845312-31.858176 42.238464-3.230208 17.39264-0.807424 35.8272 3.649024 55.653376 8.91392 39.65184 26.993152 85.49376 39.31136 130.93632 9.721856 35.8656 19.148288 71.967744 27.003392 102.38208-11.60192-11.734528-24.543232-24.118272-38.503424-35.982848-23.9616-20.363776-50.304-39.168512-77.47072-49.32864-27.165696-10.16064-58.339328-10.75968-81.36192 9.631744l-0.17664 0.155648-0.172032 0.160768c-18.09664 16.929792-27.067392 37.901312-24.706048 58.357248 2.361344 20.455936 13.579776 38.40512 28.32128 56.838656 29.482496 36.865536 75.80928 77.24032 120.526336 130.873344 50.05568 60.036096 104.587264 155.977216 143.3728 206.39744l5.187584 6.745088h339.64288l3.796992-12.109312c6.651392-21.210112 14.038528-63.557632 25.8816-116.481024 11.84256-52.923392 27.634688-115.034112 48.684032-169.609216 27.977728-72.5376 56.658432-140.803584 69.545984-194.97472 6.44352-27.0848 9.434624-50.760704 4.159488-71.72096-5.261312-20.908032-22.760448-38.171648-46.184448-42.26816-20.5952-3.91936-40.09984 5.2224-53.780992 19.098624-13.72416 13.920256-24.083456 32.461824-33.737216 53.230592-7.481856 16.095232-14.414848 33.690112-21.234688 51.36896-0.146944-29.49632-0.176128-36.56192-0.385536-76.42112-0.23296-44.42368 2.550784-94.199808-0.7808-134.23616-1.666048-20.018176-4.52608-37.663744-12.007936-52.49536-7.279616-14.430208-23.073792-26.440192-40.791552-25.805312-17.273344-0.855552-33.023488 8.03328-42.681856 20.3136-9.862144 12.539904-15.621632 28.040192-20.24704 45.08928-9.250816 34.098176-13.304832 75.335168-19.53792 109.376-2.97728 16.258048-5.834752 32.412672-8.588288 48.100864-2.061312-16.252416-4.114944-33.575936-6.004736-52.342272-4.159488-41.307136-7.08864-90.574848-15.678976-130.911232-4.295168-20.168704-9.796096-38.21568-19.212288-52.854784-9.41568-14.639104-25.630208-26.349568-44.509184-25.547264l1.353216-0.004608a62.65856 62.65856 0 0 0-1.87392-0.039424z m-0.20736 34.56c0.267776 0.001536 0.549888 0.00768 0.842752 0.01792l0.676864 0.024576 0.676352-0.029184c5.7984-0.246272 8.553472 1.285632 13.974528 9.714176 5.421056 8.428032 10.625536 23.27296 14.476288 41.3568 7.702528 36.166656 10.832384 84.837376 15.095808 127.17568 9.359872 92.952576 22.631424 160.274432 22.631424 160.274432l34.011136-0.577024s12.607488-77.751296 26.330624-152.69376c6.617088-36.140032 10.878464-76.995072 18.896896-106.55232 4.009472-14.778368 9.122304-26.497024 14.057984-32.772608 4.93568-6.275584 7.4496-7.656448 14.081536-7.170048l1.283584 0.093184 1.283072-0.09728c5.274624-0.398336 5.099008-0.480256 8.804864 6.86592 3.705856 7.3472 6.926336 21.822976 8.4224 39.795712 2.991104 35.945984 0.421376 85.630464 0.662016 131.552256 0.446976 85.202432 0.823808 163.358208 0.823808 163.358208l32.858624 7.39328c20.06528-41.805824 36.093952-93.142016 53.837312-131.313664 8.871936-19.085824 18.28864-34.690048 27.008-43.533824 8.71936-8.843776 14.245888-11.063296 22.775296-9.40544l0.18432 0.034816 0.18432 0.031232c13.185536 2.266624 15.916032 5.633024 18.696192 16.679936s1.580032 30.715392-4.265984 55.287808c-11.69152 49.14432-39.979008 117.447168-68.169728 190.536192-22.120448 57.352704-38.15424 120.82688-50.164736 174.498304-9.691136 43.306496-17.047552 80.82944-21.976576 101.577728H421.68576c-35.329024-48.039936-88.016384-139.33312-139.192832-200.713728-46.715904-56.030208-94.142464-97.892864-120.080896-130.32704-12.96896-16.217088-19.8784-29.682176-20.9792-39.217664-1.093632-9.47456 1.1264-17.043456 13.764096-28.93568 11.892736-10.450432 25.65888-10.723328 46.214144-3.03616 20.626944 7.715328 44.90496 24.349184 67.195392 43.293184 44.581376 37.888 81.44896 83.960832 81.44896 83.960832l30.272-14.976s-22.2208-88.62976-44.483584-170.75968c-12.987904-47.913472-31.023616-94.222336-38.948352-129.47456-3.962368-17.626624-5.139968-32.333312-3.388416-41.76384 1.739776-9.370112 4.272128-13.321728 12.442624-17.200128 10.972672-4.869632 17.138688-4.32384 24.114176-1.053696 7.011328 3.28704 15.19616 11.082752 23.327232 23.360512 16.26112 24.55552 31.336448 65.073152 47.31136 106.345472l-0.05632-0.147456c16.310272 43.311616 47.52896 119.630848 47.52896 119.630848l33.268224-6.042624s2.437632-84.23424 1.598464-154.675712c-0.53504-44.883968-3.474944-94.21312 0.390144-130.182656 1.9328-17.984512 5.826048-32.406528 10.53184-40.311808 4.706304-7.90528 7.48032-9.947136 16.164864-9.895424z" p-id="10157">
	</path>
</svg>
